<svg xmlns:dc="http://purl.org/dc/elements/1.1/" xmlns:cc="http://creativecommons.org/ns#" xmlns:rdf="http://www.w3.org/1999/02/22-rdf-syntax-ns#" xmlns:svg="http://www.w3.org/2000/svg" xmlns="http://www.w3.org/2000/svg" xmlns:sodipodi="http://sodipodi.sourceforge.net/DTD/sodipodi-0.dtd" xmlns:inkscape="http://www.inkscape.org/namespaces/inkscape" id="svg2" version="1.1" inkscape:version="0.48" width="100%" height="100%" sodipodi:docname="logo-297x215.png" xmlns:xlink="http://www.w3.org/1999/xlink" viewBox="6.82818 5.91 283.184 203.18" preserveAspectRatio="xMidYMid meet"><rect id="svgEditorBackground" x="6.840000152587891" y="5.909999847412109" width="283.1600036621094" height="203.17999267578125" style="fill: none; stroke: none;"/>
<style>
.s0{
	fill:#000;
}

</style>  <metadata id="metadata8">
    <rdf:RDF>
      <cc:Work rdf:about="">
        <dc:format>
          image/svg+xml
        </dc:format>
        <dc:type rdf:resource="http://purl.org/dc/dcmitype/StillImage"/>
      </cc:Work>
    </rdf:RDF>
  </metadata>
  <defs id="defs6"/>
  <sodipodi:namedview pagecolor="#ffffff" bordercolor="#666666" borderopacity="1" objecttolerance="10" gridtolerance="10" guidetolerance="10" inkscape:pageopacity="0" inkscape:pageshadow="2" inkscape:window-width="1400" inkscape:window-height="1050" id="namedview4" showgrid="false" inkscape:zoom="1.1" inkscape:cx="136.52" inkscape:cy="88.93" inkscape:window-x="0" inkscape:window-y="0" inkscape:window-maximized="0" inkscape:current-layer="svg2"/>
  <path d="M108.41 5.91C52.31 5.91 6.84 51.4 6.84 107.5 6.84 163.6 52.31 209.09 108.41 209.09 122.61 209.09 136.13 206.14 148.41 200.88 160.68 206.14 174.2 209.09 188.41 209.09 244.51 209.09 290 163.6 290 107.5 290 51.4 244.51 5.91 188.41 5.91 174.2 5.91 160.68 8.86 148.41 14.13 136.13 8.86 122.61 5.91 108.41 5.91zM106.41 37.81C121.74 37.81 135.92 42.73 147.47 51.06 159.02 42.73 173.17 37.81 188.5 37.81 227.32 37.81 258.81 69.27 258.81 108.09 258.81 146.92 227.32 178.41 188.5 178.41 173.17 178.41 159.02 173.48 147.47 165.16 135.92 173.48 121.73 178.41 106.41 178.41 67.58 178.41 36.13 146.92 36.13 108.09 36.13 69.27 67.58 37.81 106.41 37.81z" id="path2989" fill="aqua"/>
  <path d="M116.83000183105469,66.19000244140625l-33.41999816894531,0c-22.549999237060547,46.69000244140625,-3.6800003051757812,78.47000122070312,11.229995727539062,85.07000732421875c14.910003662109375,6.600006103515625,39.30000305175781,10.789993286132812,52.839996337890625,-13.639999389648438c11.1300048828125,20.910003662109375,36.410003662109375,22.1199951171875,53.220001220703125,14.3800048828125c16.80999755859375,-7.7400054931640625,33.1199951171875,-43.1199951171875,11.729995727539062,-85.80000305175781l-33.99000549316406,0c11.5,26.419998168945312,11.729995727539062,62.459991455078125,0.0099945068359375,63.529998779296875c-11.720001220703125,1.07000732421875,-15.100006103515625,-2.8499984741210938,-13.759994506835938,-44.290000915527344l-33.30999755859375,-0.15000152587890625c2.4900054931640625,40.900001525878906,-5.089996337890625,48,-15.339996337890625,43.50999450683594c-10.25,-4.489997863769531,-9.790000915527344,-28.12999725341797,0.7900009155273438,-62.61000061035156Z" id="path3768" inkscape:connector-curvature="0" sodipodi:nodetypes="cczczcczcczc" fill="aqua"/>
</svg>